<svg width="1280" height="1553" viewBox="0 0 1280 1553" fill="none" xmlns="http://www.w3.org/2000/svg">
<g clip-path="url(#clip0_701_502)">
<path d="M1280 1086.58L0 1553V196L473.381 346.619L996.637 381.545L1280 536.711V1086.58Z" fill="#0E0E0E"/>
<g filter="url(#filter0_i_701_502)">
<path d="M1280 531.273C1265.37 492.408 1185.84 404.584 984.766 364.21C734.219 313.904 348.195 401.03 0 0V268.727C0 332.782 248.677 461.664 657.616 402.496C994.133 353.806 1230.13 506.33 1280 580V531.273Z" fill="url(#paint0_radial_701_502)"/>
</g>
<path d="M1280 531.273C1265.37 492.408 1185.84 404.584 984.766 364.21C734.219 313.904 348.195 401.03 0 0V268.727C0 332.782 248.677 461.664 657.616 402.496C994.133 353.806 1230.13 506.33 1280 580V531.273Z" stroke="black"/>
</g>
<defs>
<filter id="filter0_i_701_502" x="-0.5" y="-1.33838" width="1283" height="599.969" filterUnits="userSpaceOnUse" color-interpolation-filters="sRGB">
<feFlood flood-opacity="0" result="BackgroundImageFix"/>
<feBlend mode="normal" in="SourceGraphic" in2="BackgroundImageFix" result="shape"/>
<feColorMatrix in="SourceAlpha" type="matrix" values="0 0 0 0 0 0 0 0 0 0 0 0 0 0 0 0 0 0 127 0" result="hardAlpha"/>
<feOffset dx="2" dy="18"/>
<feGaussianBlur stdDeviation="8.5"/>
<feComposite in2="hardAlpha" operator="arithmetic" k2="-1" k3="1"/>
<feColorMatrix type="matrix" values="0 0 0 0 0 0 0 0 0 0 0 0 0 0 0 0 0 0 0.68 0"/>
<feBlend mode="normal" in2="shape" result="effect1_innerShadow_701_502"/>
</filter>
<radialGradient id="paint0_radial_701_502" cx="0" cy="0" r="1" gradientUnits="userSpaceOnUse" gradientTransform="translate(640 290.25) rotate(146.414) scale(668.493 674.469)">
<stop offset="0.00896227" stop-color="#4B31CF"/>
<stop offset="0.833333" stop-color="#1B998B"/>
</radialGradient>
<clipPath id="clip0_701_502">
<rect width="1280" height="1553" fill="white"/>
</clipPath>
</defs>
</svg>
