<svg width="375" height="194" viewBox="0 0 375 194" fill="none" xmlns="http://www.w3.org/2000/svg">
<g clip-path="url(#clip0_1006_480)">
<g filter="url(#filter0_i_1006_480)">
<path d="M-640.001 303.848C-625.372 266.011 -545.845 180.51 -344.767 141.205C-94.2198 92.23 287.148 181.295 635.344 -209.124L638.681 48.0244C661.289 106.756 391.323 236.08 -17.616 178.477C-354.134 131.076 -590.13 279.564 -640.001 351.285V303.848Z" fill="url(#paint0_radial_1006_480)"/>
</g>
<path d="M638.681 -212.881C637.569 -211.624 636.456 -210.371 635.344 -209.124M635.344 -209.124C287.148 181.295 -94.2198 92.23 -344.767 141.205C-545.845 180.51 -625.372 266.011 -640.001 303.848V351.285C-590.13 279.564 -354.134 131.076 -17.616 178.477C391.323 236.08 661.289 106.756 638.681 48.0244L635.344 -209.124Z" stroke="black"/>
</g>
<defs>
<filter id="filter0_i_1006_480" x="-640.5" y="-213.212" width="1283" height="583.092" filterUnits="userSpaceOnUse" color-interpolation-filters="sRGB">
<feFlood flood-opacity="0" result="BackgroundImageFix"/>
<feBlend mode="normal" in="SourceGraphic" in2="BackgroundImageFix" result="shape"/>
<feColorMatrix in="SourceAlpha" type="matrix" values="0 0 0 0 0 0 0 0 0 0 0 0 0 0 0 0 0 0 127 0" result="hardAlpha"/>
<feOffset dx="2" dy="18"/>
<feGaussianBlur stdDeviation="8.5"/>
<feComposite in2="hardAlpha" operator="arithmetic" k2="-1" k3="1"/>
<feColorMatrix type="matrix" values="0 0 0 0 0 0 0 0 0 0 0 0 0 0 0 0 0 0 0.68 0"/>
<feBlend mode="normal" in2="shape" result="effect1_innerShadow_1006_480"/>
</filter>
<radialGradient id="paint0_radial_1006_480" cx="0" cy="0" r="1" gradientUnits="userSpaceOnUse" gradientTransform="translate(-0.000365029 69.2018) rotate(32.8816) scale(663.13 661.933)">
<stop offset="0.00896227" stop-color="#4B31CF"/>
<stop offset="0.833333" stop-color="#1B998B"/>
</radialGradient>
<clipPath id="clip0_1006_480">
<rect width="375" height="194" fill="white"/>
</clipPath>
</defs>
</svg>
