<svg width="1280" height="582" viewBox="0 0 1280 582" fill="none" xmlns="http://www.w3.org/2000/svg">
<g filter="url(#filter0_i_332_3859)">
<path d="M1280 530.808C1265.21 491.976 1184.83 404.226 981.589 363.887C728.347 313.623 342.875 405.031 -9.06696 4.34091L-12.44 268.254C-35.2912 328.532 237.58 461.257 650.918 402.139C991.057 353.491 1229.59 505.886 1280 579.494V530.808Z" fill="url(#paint0_radial_332_3859)"/>
</g>
<path d="M-12.44 0.484375C-11.316 1.77493 -10.1917 3.06043 -9.06696 4.34091M-9.06696 4.34091C342.875 405.031 728.347 313.623 981.589 363.887C1184.83 404.226 1265.21 491.976 1280 530.808V579.494C1229.59 505.886 991.057 353.491 650.918 402.139C237.58 461.257 -35.2912 328.532 -12.44 268.254L-9.06696 4.34091Z" stroke="black"/>
<defs>
<filter id="filter0_i_332_3859" x="-14.2734" y="0.155762" width="1296.77" height="597.953" filterUnits="userSpaceOnUse" color-interpolation-filters="sRGB">
<feFlood flood-opacity="0" result="BackgroundImageFix"/>
<feBlend mode="normal" in="SourceGraphic" in2="BackgroundImageFix" result="shape"/>
<feColorMatrix in="SourceAlpha" type="matrix" values="0 0 0 0 0 0 0 0 0 0 0 0 0 0 0 0 0 0 127 0" result="hardAlpha"/>
<feOffset dx="2" dy="18"/>
<feGaussianBlur stdDeviation="8.5"/>
<feComposite in2="hardAlpha" operator="arithmetic" k2="-1" k3="1"/>
<feColorMatrix type="matrix" values="0 0 0 0 0 0 0 0 0 0 0 0 0 0 0 0 0 0 0.68 0"/>
<feBlend mode="normal" in2="shape" result="effect1_innerShadow_332_3859"/>
</filter>
<radialGradient id="paint0_radial_332_3859" cx="0" cy="0" r="1" gradientUnits="userSpaceOnUse" gradientTransform="translate(633.113 289.989) rotate(146.718) scale(673.321 676.265)">
<stop offset="0.00896227" stop-color="#4B31CF"/>
<stop offset="0.833333" stop-color="#1B998B"/>
</radialGradient>
</defs>
</svg>
